# xmcd CD database file
#
# Track frame offsets:
#	150
#	13740
#	31050
#	48392
#	63767
#	82534
#	99179
#	113297
#	133944
#	149051
#	165116
#	179106
#	198428
#	213740
#	228608
#	244680
#	261178
#	275432
#	288951
#	307130
#
# Disc length: 4371 seconds
#
# Revision: 0
# Processed by: cddbd v1.5.2PL0 Copyright (c) Steve Scherf et al.
# Submitted via: CDex 1.70beta2
#
DISCID=18111114
DTITLE=Various Artist - Country Series 09
DYEAR=1900
DGENRE=Country
TTITLE0=Alan Jackson - Tropical Depression
TTITLE1=George Strait - One Night at a Time
TTITLE2=Joe Diffie - Honky Tonk Attitude
TTITLE3=Patty Loveless - Jealous Bone
TTITLE4=Tim McGraw - Don't Take the Girl
TTITLE5=Jimy Buffett - Volcano
TTITLE6=Tracy Lawrence - If the World had a Front Porch
TTITLE7=Garth Brooks - Ain't Going Down 'till the Sun Comes Up
TTITLE8=Shenandoah - Next to You, Next to Me
TTITLE9=Mindy McCready - Ten Thousand Angels
TTITLE10=Willie Nelson - Funny How Time Slips Away
TTITLE11=Vince Gill - South Side of Dixie
TTITLE12=Eddy Raven - Zydeco Lady
TTITLE13=Carlene Carter - Every Little Thing
TTITLE14=Alabama - Feels so Right
TTITLE15=Ronnie Milsap - True Believer
TTITLE16=Mary Chapin-Carpenter - Passionate Kisses
TTITLE17=Charlie Rich - Behind Closed Doors
TTITLE18=Grid - Swamp Thing
TTITLE19=Twisted Alley - Dance
EXTD=
EXTT0=
EXTT1=
EXTT2=
EXTT3=
EXTT4=
EXTT5=
EXTT6=
EXTT7=
EXTT8=
EXTT9=
EXTT10=
EXTT11=
EXTT12=
EXTT13=
EXTT14=
EXTT15=
EXTT16=
EXTT17=
EXTT18=
EXTT19=
PLAYORDER=
